<svg width="20" height="20" viewBox="0 0 20 20" fill="currentColor" xmlns="http://www.w3.org/2000/svg">
  <g opacity="0.9">
    <path d="M13.6 2.44C14.9336 3.13335 15.85 4.57358 15.85 6.25C15.85 7.92642 14.9336 9.36665 13.6 10.06M15.4 14.4C16.51 15.12 17.55 16.1 18.5 17.2M1.59999 17.2C3.2 15.5 5.3 14.2 7.4 14.2C9.5 14.2 11.6 15.5 13.2 17.2M10.5 6.25C10.5 8.5 8.5 10.25 7.4 10.25C6.3 10.25 4.8 8.5 4.8 6.25C4.8 4 6.3 2.4 7.4 2.4C8.5 2.4 10.5 4 10.5 6.25Z" stroke="#3B3B3B" stroke-width="1.5" stroke-linecap="round" stroke-linejoin="round" />
  </g>
</svg>
